<svg width="362" height="255" viewBox="0 0 362 255" fill="none" xmlns="http://www.w3.org/2000/svg">
<path d="M44.714 254.394L71.1012 234.593L39.4911 54.696L1.257 12.2222L44.714 254.394Z" fill="white"/>
<path d="M39.1112 222.957L65.77 238.834L168.372 162.452L134.045 148.937L39.1112 222.957Z" fill="white"/>
<path d="M238.847 99.4336L213.301 120.265L39.6192 55.6703L0.988861 12.4158L238.847 99.4336Z" fill="white"/>
<path d="M325.133 242.345L298.144 222.318L324.325 42.6657L361.281 0.51089L325.133 242.345Z" fill="white"/>
<path d="M329.784 210.951L303.601 226.604L198.679 149.341L232.602 136.116L329.784 210.951Z" fill="white"/>
<path d="M181.478 54.0353L227.57 71.7179L339.016 37.0633L361.554 0.706951L181.478 54.0353Z" fill="white"/>
</svg>
